<svg xmlns="http://www.w3.org/2000/svg" xmlns:xlink="http://www.w3.org/1999/xlink" width="500" zoomAndPan="magnify" viewBox="0 0 375 374.999991" height="500" preserveAspectRatio="xMidYMid meet" version="1.0"><defs><g/><clipPath id="4330cd1643"><path d="M 58.382812 111 L 218 111 L 218 317 L 58.382812 317 Z M 58.382812 111 " clip-rule="nonzero"/></clipPath><clipPath id="0f2190c6ba"><path d="M 58.382812 149 L 104 149 L 104 317 L 58.382812 317 Z M 58.382812 149 " clip-rule="nonzero"/></clipPath><clipPath id="bb627d4a02"><rect x="0" width="171" y="0" height="59"/></clipPath></defs><g clip-path="url(#4330cd1643)"><path fill="#b0c4ff" d="M 217.699219 221.707031 C 217.707031 228.132812 213.203125 235.953125 207.617188 239.179688 L 75.457031 315.546875 C 72.628906 317.175781 70.078125 317.332031 68.234375 316.230469 C 68.195312 316.21875 68.164062 316.191406 68.125 316.167969 L 61.847656 312.523438 C 60.035156 311.464844 58.90625 309.226562 58.90625 306.039062 L 58.550781 181.191406 C 58.53125 174.769531 63.035156 166.949219 68.621094 163.71875 L 90.097656 151.316406 C 92.804688 149.75 95.386719 149.515625 97.28125 150.617188 L 103.628906 154.300781 C 103.628906 154.300781 103.628906 154.3125 103.636719 154.3125 C 103.882812 154.453125 104.125 154.617188 104.359375 154.8125 L 113.210938 162.171875 C 114.613281 162.183594 116.171875 161.722656 117.777344 160.796875 L 200.851562 112.789062 C 203.667969 111.160156 206.210938 111.007812 208.054688 112.074219 L 214.464844 115.8125 C 216.285156 116.859375 217.402344 119.101562 217.414062 122.296875 Z M 217.699219 221.707031 " fill-opacity="1" fill-rule="nonzero"/></g><path fill="#b0c4ff" d="M 208.050781 112.078125 C 206.210938 111.007812 203.664062 111.160156 200.855469 112.785156 L 117.773438 160.796875 C 115.066406 162.359375 112.480469 162.601562 110.585938 161.5 L 117 165.230469 C 118.894531 166.332031 121.480469 166.089844 124.1875 164.527344 L 207.269531 116.515625 C 210.078125 114.890625 212.625 114.738281 214.464844 115.808594 Z M 208.050781 112.078125 " fill-opacity="1" fill-rule="nonzero"/><g clip-path="url(#0f2190c6ba)"><path fill="#b0c4ff" d="M 90.09375 151.316406 L 68.625 163.722656 C 63.042969 166.949219 58.53125 174.769531 58.550781 181.191406 L 58.902344 306.035156 C 58.910156 309.222656 60.035156 311.46875 61.851562 312.523438 L 68.265625 316.253906 C 66.449219 315.199219 65.324219 312.953125 65.316406 309.765625 L 64.960938 184.921875 C 64.945312 178.5 69.457031 170.679688 75.039062 167.453125 L 96.507812 155.046875 C 99.214844 153.484375 101.800781 153.242188 103.691406 154.34375 L 97.28125 150.613281 C 95.386719 149.511719 92.800781 149.753906 90.09375 151.316406 Z M 90.09375 151.316406 " fill-opacity="1" fill-rule="nonzero"/></g><path fill="#7ca2e5" d="M 96.507812 155.046875 C 99.546875 153.292969 102.429688 153.203125 104.355469 154.808594 L 116.335938 164.765625 C 118.261719 166.371094 121.148438 166.28125 124.1875 164.527344 L 207.269531 116.515625 C 212.851562 113.289062 217.394531 115.878906 217.410156 122.300781 L 217.691406 221.710938 C 217.710938 228.132812 213.199219 235.953125 207.617188 239.179688 L 75.457031 315.550781 C 69.875 318.777344 65.335938 316.1875 65.316406 309.765625 L 64.960938 184.921875 C 64.945312 178.5 69.457031 170.679688 75.039062 167.453125 Z M 96.507812 155.046875 " fill-opacity="1" fill-rule="nonzero"/><path fill="#dde9fe" d="M 145.664062 194.828125 C 145.722656 216.34375 130.617188 242.53125 111.910156 253.34375 C 102.335938 258.875 93.6875 259.300781 87.503906 255.523438 C 87.605469 255.59375 87.707031 255.65625 87.808594 255.71875 L 83.109375 253.070312 C 77.023438 249.535156 73.269531 242.011719 73.242188 231.320312 C 73.179688 209.804688 88.285156 183.617188 106.984375 172.800781 C 116.394531 167.367188 124.929688 166.855469 131.09375 170.429688 L 135.792969 173.078125 C 135.640625 172.984375 135.488281 172.90625 135.335938 172.832031 C 141.675781 176.253906 145.632812 183.882812 145.664062 194.828125 Z M 145.664062 194.828125 " fill-opacity="1" fill-rule="nonzero"/><path fill="#c7d8ef" d="M 135.796875 173.082031 C 129.640625 169.503906 121.097656 170.007812 111.6875 175.449219 C 92.988281 186.261719 77.878906 212.441406 77.941406 233.96875 C 77.972656 244.65625 81.730469 252.164062 87.808594 255.710938 L 83.105469 253.066406 C 77.027344 249.535156 73.269531 242.011719 73.238281 231.324219 C 73.175781 209.808594 88.285156 183.617188 106.984375 172.804688 C 116.394531 167.363281 124.933594 166.855469 131.089844 170.433594 Z M 135.796875 173.082031 " fill-opacity="1" fill-rule="nonzero"/><path fill="#dde9fe" d="M 135.785156 173.082031 C 136.566406 173.539062 137.3125 174.058594 138.011719 174.644531 C 138.714844 175.230469 139.375 175.878906 139.988281 176.589844 C 140.601562 177.300781 141.171875 178.070312 141.691406 178.898438 C 142.214844 179.726562 142.683594 180.609375 143.109375 181.546875 C 143.53125 182.488281 143.902344 183.476562 144.222656 184.515625 C 144.542969 185.554688 144.808594 186.640625 145.023438 187.769531 C 145.238281 188.902344 145.398438 190.070312 145.507812 191.28125 C 145.613281 192.492188 145.667969 193.734375 145.664062 195.015625 C 145.664062 196.292969 145.605469 197.601562 145.496094 198.933594 C 145.386719 200.269531 145.222656 201.625 145.003906 203.003906 C 144.785156 204.382812 144.515625 205.773438 144.191406 207.183594 C 143.867188 208.589844 143.492188 210.007812 143.066406 211.429688 C 142.640625 212.855469 142.164062 214.28125 141.640625 215.707031 C 141.117188 217.136719 140.542969 218.558594 139.925781 219.972656 C 139.308594 221.386719 138.648438 222.792969 137.941406 224.183594 C 137.238281 225.574219 136.492188 226.945312 135.707031 228.300781 C 134.921875 229.652344 134.097656 230.980469 133.242188 232.28125 C 132.382812 233.582031 131.492188 234.851562 130.566406 236.089844 C 129.644531 237.328125 128.695312 238.53125 127.714844 239.691406 C 126.734375 240.855469 125.734375 241.972656 124.707031 243.050781 C 123.683594 244.125 122.640625 245.152344 121.578125 246.132812 C 120.515625 247.109375 119.441406 248.035156 118.351562 248.90625 C 117.265625 249.777344 116.167969 250.59375 115.0625 251.351562 C 113.960938 252.109375 112.851562 252.804688 111.746094 253.4375 C 110.636719 254.074219 109.527344 254.644531 108.425781 255.148438 C 107.320312 255.65625 106.226562 256.09375 105.140625 256.46875 C 104.050781 256.839844 102.976562 257.144531 101.917969 257.382812 C 100.855469 257.617188 99.8125 257.785156 98.789062 257.882812 C 97.765625 257.980469 96.765625 258.007812 95.789062 257.964844 C 94.808594 257.917969 93.859375 257.808594 92.9375 257.625 C 92.019531 257.441406 91.128906 257.191406 90.273438 256.871094 C 89.417969 256.546875 88.597656 256.160156 87.816406 255.707031 C 87.03125 255.25 86.289062 254.730469 85.585938 254.144531 C 84.882812 253.558594 84.226562 252.910156 83.613281 252.199219 C 82.996094 251.488281 82.429688 250.71875 81.90625 249.890625 C 81.386719 249.0625 80.914062 248.175781 80.492188 247.238281 C 80.070312 246.300781 79.699219 245.3125 79.378906 244.273438 C 79.058594 243.234375 78.789062 242.148438 78.574219 241.015625 C 78.359375 239.886719 78.199219 238.714844 78.09375 237.507812 C 77.984375 236.296875 77.933594 235.050781 77.933594 233.773438 C 77.9375 232.492188 77.992188 231.1875 78.105469 229.851562 C 78.214844 228.519531 78.378906 227.160156 78.597656 225.785156 C 78.816406 224.40625 79.085938 223.011719 79.410156 221.605469 C 79.734375 220.195312 80.109375 218.78125 80.535156 217.355469 C 80.960938 215.933594 81.4375 214.507812 81.960938 213.078125 C 82.484375 211.652344 83.054688 210.230469 83.671875 208.816406 C 84.289062 207.398438 84.953125 205.996094 85.65625 204.605469 C 86.363281 203.214844 87.109375 201.839844 87.894531 200.488281 C 88.679688 199.136719 89.5 197.808594 90.359375 196.507812 C 91.21875 195.203125 92.109375 193.933594 93.03125 192.695312 C 93.953125 191.457031 94.90625 190.257812 95.886719 189.09375 C 96.863281 187.933594 97.867188 186.8125 98.890625 185.738281 C 99.917969 184.660156 100.960938 183.636719 102.023438 182.65625 C 103.085938 181.675781 104.160156 180.753906 105.246094 179.878906 C 106.335938 179.007812 107.433594 178.195312 108.535156 177.4375 C 109.640625 176.679688 110.746094 175.984375 111.855469 175.347656 C 112.964844 174.714844 114.070312 174.144531 115.175781 173.636719 C 116.277344 173.132812 117.375 172.691406 118.460938 172.320312 C 119.546875 171.945312 120.621094 171.640625 121.683594 171.40625 C 122.746094 171.167969 123.785156 171.003906 124.8125 170.90625 C 125.835938 170.808594 126.835938 170.78125 127.8125 170.824219 C 128.789062 170.867188 129.738281 170.980469 130.660156 171.164062 C 131.582031 171.347656 132.46875 171.597656 133.328125 171.917969 C 134.183594 172.238281 135.003906 172.628906 135.785156 173.082031 Z M 135.785156 173.082031 " fill-opacity="1" fill-rule="nonzero"/><path fill="#ffffff" d="M 96.710938 253.09375 C 88.8125 253.09375 84.078125 246.390625 84.046875 235.164062 C 83.992188 215.96875 98.050781 191.605469 114.746094 181.960938 C 119.082031 179.453125 123.285156 178.125 126.890625 178.125 C 134.789062 178.125 139.523438 184.832031 139.554688 196.058594 C 139.609375 215.25 125.550781 239.617188 108.855469 249.261719 C 104.515625 251.769531 100.316406 253.09375 96.710938 253.09375 Z M 96.710938 253.09375 " fill-opacity="1" fill-rule="nonzero"/><path fill="#4075c1" d="M 111.597656 191.707031 L 125.648438 208.199219 L 111.792969 224.722656 C 109.40625 215.917969 108.042969 206.144531 111.597656 191.707031 Z M 111.597656 191.707031 " fill-opacity="1" fill-rule="nonzero"/><path fill="#3168aa" d="M 111.597656 191.707031 L 111.792969 224.722656 L 97.945312 224.210938 Z M 111.597656 191.707031 " fill-opacity="1" fill-rule="nonzero"/><path fill="#92b2f9" d="M 97.953125 227.078125 L 111.832031 228.054688 L 111.863281 239.515625 Z M 97.953125 227.078125 " fill-opacity="1" fill-rule="nonzero"/><path fill="#3168aa" d="M 125.660156 211.070312 L 111.863281 239.515625 L 111.832031 228.054688 Z M 125.660156 211.070312 " fill-opacity="1" fill-rule="nonzero"/><path fill="#dde9fe" d="M 223.191406 159.035156 C 223.203125 163.324219 220.191406 168.546875 216.457031 170.707031 L 158.960938 203.929688 C 157.085938 205.019531 155.386719 205.121094 154.15625 204.398438 C 154.117188 204.378906 154.066406 204.359375 154.023438 204.316406 L 149.183594 201.507812 C 147.972656 200.804688 147.210938 199.308594 147.210938 197.167969 L 146.953125 132.113281 C 146.945312 127.828125 149.957031 122.59375 153.699219 120.433594 L 211.1875 87.21875 C 213.070312 86.128906 214.769531 86.027344 216 86.742188 L 220.972656 89.632812 C 220.894531 89.582031 220.800781 89.542969 220.710938 89.511719 C 222.074219 90.144531 222.925781 91.699219 222.9375 93.972656 Z M 223.191406 159.035156 " fill-opacity="1" fill-rule="nonzero"/><path fill="#c7d8ef" d="M 220.972656 89.636719 C 219.742188 88.925781 218.042969 89.023438 216.164062 90.109375 L 158.667969 123.335938 C 154.933594 125.492188 151.921875 130.714844 151.9375 135.003906 L 152.1875 200.066406 C 152.191406 202.195312 152.941406 203.695312 154.15625 204.402344 L 149.179688 201.511719 C 147.96875 200.804688 147.214844 199.304688 147.207031 197.167969 L 146.957031 132.109375 C 146.949219 127.824219 149.960938 122.597656 153.695312 120.4375 L 211.191406 87.21875 C 213.070312 86.132812 214.769531 86.03125 215.996094 86.746094 Z M 220.972656 89.636719 " fill-opacity="1" fill-rule="nonzero"/><path fill="#dde9fe" d="M 216.164062 90.113281 C 219.898438 87.953125 222.929688 89.683594 222.941406 93.972656 L 223.191406 159.035156 C 223.203125 163.324219 220.191406 168.550781 216.457031 170.707031 L 158.960938 203.929688 C 155.230469 206.085938 152.195312 204.355469 152.183594 200.066406 L 151.933594 135.003906 C 151.921875 130.714844 154.933594 125.492188 158.667969 123.332031 Z M 216.164062 90.113281 " fill-opacity="1" fill-rule="nonzero"/><path fill="#ffffff" d="M 155.9375 201.332031 C 155.851562 201.179688 155.707031 200.773438 155.707031 200.054688 L 155.457031 134.992188 C 155.449219 131.945312 157.773438 127.921875 160.429688 126.386719 L 217.925781 93.164062 C 218.644531 92.75 219.066406 92.710938 219.191406 92.707031 C 219.277344 92.863281 219.417969 93.265625 219.417969 93.984375 L 219.667969 159.046875 C 219.675781 162.09375 217.351562 166.121094 214.695312 167.65625 L 157.203125 200.875 C 156.480469 201.292969 156.054688 201.332031 155.9375 201.332031 Z M 155.9375 201.332031 " fill-opacity="1" fill-rule="nonzero"/><path fill="#5789dc" d="M 182.328125 127.640625 C 185.46875 125.824219 188.015625 127.292969 188.027344 130.890625 C 188.039062 134.507812 185.507812 138.894531 182.363281 140.710938 C 179.234375 142.519531 176.6875 141.066406 176.675781 137.453125 C 176.667969 133.851562 179.199219 129.449219 182.328125 127.640625 Z M 182.328125 127.640625 " fill-opacity="1" fill-rule="nonzero"/><path fill="#5789dc" d="M 212.773438 151.070312 C 212.226562 152.003906 211.585938 152.824219 210.894531 153.515625 C 210.347656 153.996094 210.300781 154.046875 210.25 154.078125 C 209.976562 154.300781 209.914062 154.335938 209.867188 154.367188 C 209.769531 154.449219 209.722656 154.480469 209.671875 154.511719 C 209.59375 154.558594 209.527344 154.609375 209.480469 154.640625 C 209.367188 154.703125 209.320312 154.738281 209.253906 154.769531 L 166.5625 179.449219 C 166.511719 179.480469 166.449219 179.515625 166.382812 179.546875 C 166.289062 179.59375 166.238281 179.625 166.191406 179.644531 C 164.617188 180.367188 163.394531 180.238281 162.589844 179.496094 C 162.285156 179.222656 162.042969 178.855469 161.867188 178.421875 L 171.6875 151.328125 C 172.105469 150.167969 172.894531 149.25 173.683594 148.800781 C 174.453125 148.351562 175.242188 148.351562 175.675781 149.007812 L 181.878906 158.808594 C 182.296875 159.484375 183.085938 159.5 183.875 159.03125 C 184.660156 158.582031 185.449219 157.664062 185.867188 156.492188 L 195.992188 128.578125 C 196.410156 127.417969 197.183594 126.5 197.96875 126.050781 C 198.757812 125.601562 199.546875 125.601562 199.964844 126.277344 L 212.597656 146.210938 C 213.34375 147.945312 213.53125 149.328125 212.773438 151.070312 Z M 212.773438 151.070312 " fill-opacity="1" fill-rule="nonzero"/><path fill="#b0c4ff" d="M 242.957031 127.625 L 224.769531 227.023438 C 223.730469 232.707031 218.359375 239.933594 212.773438 243.164062 L 80.617188 319.53125 C 77.453125 321.363281 74.890625 321.515625 73.464844 320.261719 L 67.257812 315.261719 C 66.097656 314.328125 65.632812 312.523438 66.089844 310 L 80.160156 233.121094 C 81.195312 227.441406 86.566406 220.210938 92.152344 216.984375 L 148.765625 184.269531 C 151.808594 182.515625 154.941406 179.453125 157.300781 175.9375 L 171.960938 154.117188 C 174.320312 150.605469 177.453125 147.539062 180.496094 145.789062 L 228.429688 118.082031 C 231.523438 116.300781 234.035156 116.117188 235.492188 117.277344 L 241.625 122.238281 C 242.90625 123.132812 243.4375 124.976562 242.957031 127.625 Z M 242.957031 127.625 " fill-opacity="1" fill-rule="nonzero"/><path fill="#92b2f9" d="M 235.488281 117.28125 C 234.042969 116.113281 231.527344 116.296875 228.429688 118.085938 L 180.496094 145.785156 C 177.457031 147.542969 174.320312 150.605469 171.964844 154.117188 L 157.300781 175.9375 C 154.941406 179.449219 151.804688 182.511719 148.765625 184.265625 L 92.148438 216.984375 C 86.566406 220.210938 81.195312 227.4375 80.15625 233.125 L 66.09375 310 C 65.628906 312.527344 66.101562 314.328125 67.261719 315.261719 L 73.558594 320.339844 C 72.402344 319.40625 71.929688 317.609375 72.390625 315.078125 L 86.457031 238.203125 C 87.496094 232.515625 92.867188 225.289062 98.449219 222.0625 L 155.066406 189.347656 C 158.105469 187.589844 161.242188 184.527344 163.597656 181.015625 L 178.265625 159.195312 C 180.621094 155.683594 183.757812 152.621094 186.796875 150.863281 L 234.730469 123.167969 C 237.828125 121.375 240.339844 121.191406 241.785156 122.359375 Z M 235.488281 117.28125 " fill-opacity="1" fill-rule="nonzero"/><path fill="#b0c4ff" d="M 234.730469 123.167969 C 240.3125 119.941406 243.996094 121.933594 242.953125 127.621094 L 224.769531 227.023438 C 223.730469 232.710938 218.359375 239.9375 212.777344 243.164062 L 80.617188 319.535156 C 75.035156 322.761719 71.351562 320.765625 72.390625 315.078125 L 86.457031 238.203125 C 87.496094 232.515625 92.867188 225.289062 98.449219 222.0625 L 155.066406 189.347656 C 158.105469 187.589844 161.242188 184.527344 163.597656 181.015625 L 178.265625 159.195312 C 180.621094 155.683594 183.757812 152.621094 186.796875 150.863281 Z M 234.730469 123.167969 " fill-opacity="1" fill-rule="nonzero"/><path fill="#dde9fe" d="M 148.664062 119.082031 C 148.675781 121.667969 146.851562 124.824219 144.605469 126.128906 L 109.925781 146.164062 C 108.777344 146.828125 107.726562 146.878906 106.984375 146.421875 L 104.023438 144.699219 C 103.292969 144.273438 102.835938 143.375 102.835938 142.082031 L 102.679688 102.839844 C 102.679688 100.253906 104.492188 97.105469 106.75 95.804688 L 141.429688 75.765625 C 142.558594 75.113281 143.585938 75.042969 144.332031 75.480469 L 147.332031 77.222656 C 147.28125 77.191406 147.230469 77.160156 147.167969 77.140625 C 147.992188 77.527344 148.511719 78.464844 148.511719 79.839844 Z M 148.664062 119.082031 " fill-opacity="1" fill-rule="nonzero"/><path fill="#b3c9e2" d="M 147.328125 77.222656 C 146.585938 76.792969 145.5625 76.851562 144.429688 77.507812 L 109.75 97.550781 C 107.496094 98.851562 105.679688 102 105.6875 104.585938 L 105.839844 143.832031 C 105.84375 145.117188 106.292969 146.019531 107.027344 146.445312 L 104.023438 144.703125 C 103.292969 144.277344 102.839844 143.371094 102.835938 142.082031 L 102.683594 102.84375 C 102.679688 100.257812 104.496094 97.101562 106.75 95.800781 L 141.429688 75.765625 C 142.5625 75.109375 143.585938 75.046875 144.328125 75.480469 Z M 147.328125 77.222656 " fill-opacity="1" fill-rule="nonzero"/><path fill="#dde9fe" d="M 144.425781 77.507812 C 146.679688 76.207031 148.507812 77.25 148.515625 79.839844 L 148.667969 119.082031 C 148.671875 121.667969 146.855469 124.820312 144.605469 126.125 L 109.925781 146.164062 C 107.671875 147.464844 105.84375 146.417969 105.835938 143.832031 L 105.6875 104.585938 C 105.679688 102 107.496094 98.851562 109.75 97.546875 Z M 144.425781 77.507812 " fill-opacity="1" fill-rule="nonzero"/><path fill="#ffffff" d="M 127.117188 95.125 C 135.144531 90.484375 141.679688 94.214844 141.707031 103.417969 C 141.734375 112.652344 135.238281 123.910156 127.210938 128.550781 C 119.179688 133.191406 112.671875 129.445312 112.644531 120.210938 C 112.621094 111.007812 119.085938 99.765625 127.117188 95.125 Z M 127.117188 95.125 " fill-opacity="1" fill-rule="nonzero"/><path fill="#6a95d3" d="M 125.035156 105.632812 C 125.316406 105.46875 125.605469 105.394531 125.871094 105.4375 L 133.578125 106.785156 C 134.503906 106.9375 134.507812 108.507812 133.585938 109.746094 L 125.914062 119.984375 C 125.644531 120.339844 125.355469 120.601562 125.074219 120.765625 C 124.273438 121.226562 123.527344 120.921875 123.523438 119.882812 L 123.492188 108.300781 C 123.488281 107.261719 124.230469 106.097656 125.035156 105.632812 Z M 125.035156 105.632812 " fill-opacity="1" fill-rule="nonzero"/><path fill="#5789dc" d="M 204.984375 206.316406 C 203.476562 214.585938 195.628906 225.144531 187.453125 229.863281 C 182.507812 232.726562 126.199219 265.261719 120.066406 268.8125 C 113.457031 272.628906 109.082031 270.253906 110.308594 263.523438 C 111.546875 256.78125 117.925781 248.191406 124.535156 244.375 C 125.351562 243.898438 126.144531 243.496094 126.855469 243.285156 L 126.90625 243 C 128.367188 235.003906 135.964844 224.785156 143.867188 220.214844 C 146.183594 218.878906 148.273438 218.210938 150.03125 218.082031 C 155.179688 207.015625 165.019531 195.554688 175.132812 189.714844 C 187.824219 182.375 196.351562 186.511719 194.769531 198.832031 C 201.910156 195.542969 206.378906 198.691406 204.984375 206.316406 Z M 204.984375 206.316406 " fill-opacity="1" fill-rule="nonzero"/><path fill="#ffffff" d="M 161.382812 214.523438 C 161.730469 214.320312 162.050781 214.273438 162.226562 214.445312 L 168.542969 220.675781 C 168.996094 221.109375 168.238281 222.566406 167.261719 223.132812 L 163.828125 225.117188 C 163.175781 225.492188 162.554688 226.328125 162.433594 226.996094 L 160.277344 238.789062 C 160.152344 239.453125 159.53125 240.289062 158.878906 240.667969 L 153.777344 243.617188 C 153.125 243.992188 152.699219 243.761719 152.820312 243.097656 L 154.976562 231.304688 C 155.097656 230.640625 154.671875 230.40625 154.019531 230.785156 L 150.585938 232.769531 C 149.609375 233.332031 149.269531 232.507812 150.007812 231.382812 L 160.367188 215.523438 C 160.65625 215.078125 161.03125 214.722656 161.382812 214.523438 Z M 161.382812 214.523438 " fill-opacity="1" fill-rule="nonzero"/><path fill="#5789dc" d="M 173.445312 252.703125 L 173.195312 254.066406 L 171.90625 254.8125 L 172.15625 253.449219 Z M 173.445312 252.703125 " fill-opacity="1" fill-rule="nonzero"/><path fill="#5789dc" d="M 180.449219 248.65625 L 180.203125 250.019531 L 178.921875 250.757812 L 179.167969 249.394531 Z M 180.449219 248.65625 " fill-opacity="1" fill-rule="nonzero"/><path fill="#5789dc" d="M 183.957031 246.628906 L 183.707031 247.992188 L 182.417969 248.738281 L 182.667969 247.375 Z M 183.957031 246.628906 " fill-opacity="1" fill-rule="nonzero"/><path fill="#5789dc" d="M 170.734375 248.453125 C 171.199219 248.910156 171.316406 249.769531 171.082031 251.042969 C 170.902344 252.019531 170.554688 253.015625 170.046875 254.011719 C 169.15625 255.777344 167.941406 257.101562 166.382812 258 L 162.734375 260.113281 L 164.417969 250.898438 L 168.085938 248.777344 C 169.328125 248.0625 170.214844 247.945312 170.734375 248.453125 Z M 169.519531 252.996094 C 169.648438 252.613281 169.738281 252.273438 169.792969 251.976562 C 170.003906 250.835938 169.9375 250.082031 169.609375 249.703125 C 169.277344 249.332031 168.617188 249.425781 167.632812 249.996094 L 165.457031 251.253906 L 164.160156 258.332031 L 166.347656 257.070312 C 166.765625 256.828125 167.113281 256.589844 167.394531 256.347656 C 167.898438 255.914062 168.34375 255.371094 168.734375 254.734375 C 169.046875 254.21875 169.308594 253.636719 169.519531 252.996094 " fill-opacity="1" fill-rule="nonzero"/><path fill="#5789dc" d="M 159.960938 253.472656 L 161.5625 260.789062 L 160.21875 261.566406 L 159.804688 259.335938 L 156.222656 261.40625 L 154.746094 264.730469 L 153.488281 265.457031 L 158.574219 254.277344 Z M 156.765625 260.183594 L 159.59375 258.546875 L 158.96875 255.265625 L 156.765625 260.183594 " fill-opacity="1" fill-rule="nonzero"/><path fill="#5789dc" d="M 153.34375 258.472656 C 153.800781 258.9375 153.90625 259.816406 153.675781 261.078125 C 153.421875 262.460938 152.867188 263.800781 152.011719 265.117188 C 151.011719 266.652344 149.769531 267.847656 148.277344 268.707031 C 146.882812 269.511719 145.878906 269.675781 145.253906 269.199219 C 144.710938 268.707031 144.554688 267.773438 144.808594 266.394531 C 145.035156 265.144531 145.539062 263.902344 146.3125 262.660156 C 147.296875 261.070312 148.558594 259.835938 150.082031 258.953125 C 151.679688 258.03125 152.769531 257.871094 153.34375 258.472656 Z M 151.1875 264.96875 C 151.816406 263.902344 152.222656 262.859375 152.414062 261.832031 C 152.609375 260.746094 152.488281 260.039062 152.054688 259.695312 C 151.617188 259.359375 150.921875 259.460938 149.953125 260.019531 C 149.019531 260.5625 148.191406 261.332031 147.484375 262.328125 C 146.773438 263.328125 146.300781 264.460938 146.066406 265.742188 C 145.878906 266.757812 145.972656 267.476562 146.351562 267.882812 C 146.730469 268.292969 147.492188 268.164062 148.628906 267.507812 C 149.707031 266.882812 150.5625 266.035156 151.1875 264.96875 " fill-opacity="1" fill-rule="nonzero"/><path fill="#5789dc" d="M 140.339844 264.8125 L 138.855469 272.933594 L 143.441406 270.285156 L 143.242188 271.375 L 137.429688 274.734375 L 139.113281 265.519531 Z M 140.339844 264.8125 " fill-opacity="1" fill-rule="nonzero"/><path fill="#5789dc" d="M 136.707031 267.527344 C 137.113281 267.703125 137.246094 268.210938 137.09375 269.046875 C 136.960938 269.769531 136.628906 270.519531 136.085938 271.308594 C 135.554688 272.09375 134.828125 272.757812 133.917969 273.285156 L 131.070312 274.929688 L 130.359375 278.820312 L 129.132812 279.527344 L 130.820312 270.3125 L 134.890625 267.960938 C 135.695312 267.496094 136.300781 267.351562 136.707031 267.527344 Z M 135.101562 271.335938 C 135.492188 270.898438 135.738281 270.378906 135.847656 269.773438 C 135.972656 269.097656 135.816406 268.777344 135.367188 268.816406 C 135.117188 268.84375 134.757812 268.992188 134.285156 269.265625 L 131.847656 270.675781 L 131.265625 273.867188 L 133.699219 272.460938 C 134.253906 272.140625 134.71875 271.769531 135.101562 271.335938 " fill-opacity="1" fill-rule="nonzero"/><path fill="#5789dc" d="M 128.804688 271.480469 L 127.859375 276.652344 C 127.648438 277.785156 127.335938 278.753906 126.925781 279.53125 C 126.175781 280.957031 125.035156 282.117188 123.503906 283.003906 C 121.980469 283.882812 121.042969 283.925781 120.695312 283.132812 C 120.507812 282.699219 120.515625 281.910156 120.722656 280.773438 L 121.671875 275.601562 L 122.917969 274.878906 L 121.875 280.578125 C 121.753906 281.242188 121.773438 281.734375 121.941406 282.03125 C 122.183594 282.488281 122.734375 282.46875 123.605469 281.964844 C 124.644531 281.367188 125.414062 280.597656 125.921875 279.65625 C 126.199219 279.148438 126.390625 278.566406 126.511719 277.898438 L 127.554688 272.199219 Z M 128.804688 271.480469 " fill-opacity="1" fill-rule="nonzero"/><path fill="#5789dc" d="M 176.953125 250.675781 L 176.703125 252.039062 L 175.414062 252.785156 L 175.664062 251.421875 Z M 176.953125 250.675781 " fill-opacity="1" fill-rule="nonzero"/><path fill="#fc6c85" d="M 176.324219 318.449219 L 180.710938 315.03125 C 182.839844 313.375 185.371094 312.308594 188.039062 311.9375 C 189.117188 311.792969 190.1875 311.695312 191.246094 311.667969 C 193.285156 311.601562 195.203125 310.605469 196.316406 308.894531 C 198.4375 305.636719 198.394531 301.316406 196.773438 296.214844 L 184.214844 292.199219 L 178.164062 299.421875 C 177.496094 300.214844 176.699219 300.886719 175.804688 301.402344 C 168.484375 305.605469 162.242188 309.910156 161.339844 315.335938 C 160.085938 323.199219 169.492188 323.207031 176.324219 318.449219 Z M 176.324219 318.449219 " fill-opacity="1" fill-rule="nonzero"/><path fill="#f95070" d="M 176.324219 318.449219 L 180.710938 315.03125 C 182.839844 313.375 185.371094 312.308594 188.039062 311.9375 C 189.117188 311.792969 190.1875 311.695312 191.246094 311.667969 C 193.285156 311.601562 195.203125 310.605469 196.316406 308.894531 C 198.183594 306.03125 198.371094 302.347656 197.289062 298.03125 C 197.535156 300.875 197.0625 303.363281 195.71875 305.425781 C 194.605469 307.140625 192.6875 308.136719 190.648438 308.199219 C 189.589844 308.230469 188.519531 308.324219 187.441406 308.472656 C 184.773438 308.839844 182.242188 309.90625 180.113281 311.566406 L 175.726562 314.984375 C 170.355469 318.722656 163.390625 319.519531 161.273438 315.863281 C 160.519531 323.199219 169.648438 323.101562 176.324219 318.449219 Z M 176.324219 318.449219 " fill-opacity="1" fill-rule="nonzero"/><path fill="#fc6c85" d="M 205.402344 305.679688 C 203.402344 308.585938 201.386719 311.296875 199.347656 313.535156 C 197.804688 315.230469 195.976562 316.644531 193.953125 317.722656 C 188.128906 320.824219 184.128906 324.21875 182.644531 327.753906 C 181.484375 330.519531 182.796875 333.691406 185.492188 335.007812 C 190.671875 337.539062 197.164062 334.234375 203.375 328.5625 C 204.359375 327.667969 205.664062 327.207031 206.992188 327.257812 C 208.035156 327.296875 209.039062 327.285156 209.984375 327.214844 C 214.179688 326.902344 217.523438 323.582031 217.898438 319.386719 L 218.410156 313.648438 Z M 205.402344 305.679688 " fill-opacity="1" fill-rule="nonzero"/><path fill="#f95070" d="M 185.492188 335.003906 C 190.671875 337.539062 197.164062 334.234375 203.375 328.5625 C 204.359375 327.667969 205.660156 327.207031 206.992188 327.257812 C 208.039062 327.296875 209.039062 327.285156 209.984375 327.214844 C 214.179688 326.898438 217.527344 323.582031 217.898438 319.386719 L 218.410156 313.644531 L 217.226562 312.921875 L 217.03125 315.125 C 216.660156 319.320312 213.316406 322.640625 209.121094 322.957031 C 208.171875 323.027344 207.171875 323.035156 206.125 322.996094 C 204.796875 322.949219 203.492188 323.40625 202.511719 324.304688 C 196.300781 329.976562 189.804688 333.28125 184.625 330.746094 C 183.671875 330.277344 182.890625 329.582031 182.335938 328.75 C 181.816406 331.246094 183.117188 333.84375 185.492188 335.003906 Z M 185.492188 335.003906 " fill-opacity="1" fill-rule="nonzero"/><path fill="#353437" d="M 260.515625 235.859375 L 216.460938 245 C 213.5 245.613281 210.929688 247.429688 209.363281 250.015625 L 183.949219 291.902344 C 181.933594 296.375 193.570312 301.273438 196.671875 297.15625 L 222.800781 267.238281 C 223.820312 266.082031 225.191406 265.289062 226.703125 264.980469 L 257.414062 258.671875 L 269.535156 252.027344 L 263.1875 236.71875 Z M 260.515625 235.859375 " fill-opacity="1" fill-rule="nonzero"/><path fill="#1a1a1c" d="M 188.273438 297.703125 C 191.34375 299.015625 195.101562 299.242188 196.671875 297.15625 L 222.796875 267.242188 C 223.820312 266.082031 225.191406 265.289062 226.703125 264.980469 L 257.414062 258.671875 L 269.535156 252.027344 L 264.824219 240.664062 C 261.78125 241.660156 259.910156 244.699219 257.246094 246.488281 C 253.261719 249.15625 248.070312 248.746094 243.277344 248.71875 C 239.394531 248.695312 235.511719 248.996094 231.679688 249.609375 C 228.828125 250.070312 225.855469 250.78125 223.746094 252.757812 C 221.675781 254.699219 220.75 257.578125 218.882812 259.714844 C 217.167969 261.675781 214.765625 262.894531 212.855469 264.671875 C 210.40625 266.949219 208.875 270.050781 206.609375 272.515625 C 205.054688 274.207031 203.171875 275.582031 201.757812 277.386719 C 199.46875 280.304688 198.582031 284.09375 196.476562 287.144531 C 194.765625 289.621094 192.328125 291.507812 190.4375 293.847656 C 189.519531 294.980469 188.726562 296.3125 188.273438 297.703125 Z M 188.273438 297.703125 " fill-opacity="1" fill-rule="nonzero"/><path fill="#353437" d="M 263.808594 249.09375 L 241.53125 253.730469 C 239 254.257812 236.789062 255.78125 235.386719 257.953125 L 205.832031 304.378906 C 202.867188 308.878906 216 317.542969 218.964844 313.042969 L 246.519531 282.902344 C 247.71875 281.589844 249.519531 281.007812 251.261719 281.371094 C 261.105469 283.414062 270.496094 284.421875 279.214844 283.902344 C 283.050781 283.671875 286.78125 282.433594 289.910156 280.195312 C 295.515625 276.183594 298.296875 270.230469 297.835938 262.046875 L 273 244.660156 Z M 263.808594 249.09375 " fill-opacity="1" fill-rule="nonzero"/><path fill="#1a1a1c" d="M 212.292969 313.273438 C 215.023438 314.542969 217.789062 314.824219 218.964844 313.042969 L 246.519531 282.902344 C 247.71875 281.589844 249.519531 281.007812 251.261719 281.367188 C 261.105469 283.414062 270.496094 284.421875 279.210938 283.902344 C 283.050781 283.671875 286.785156 282.429688 289.914062 280.195312 C 295.515625 276.183594 298.296875 270.230469 297.839844 262.046875 L 292.117188 258.042969 C 291.855469 260.546875 291.941406 262.996094 291.109375 265.449219 C 289.890625 269.039062 287.027344 272.296875 283.292969 272.933594 C 280.398438 273.429688 277.503906 272.324219 274.664062 271.554688 C 269.160156 270.066406 263.332031 269.816406 257.726562 270.835938 C 255.964844 271.15625 254.199219 271.613281 252.636719 272.492188 C 251.15625 273.324219 249.859375 274.535156 248.234375 275.03125 C 245.953125 275.726562 243.433594 274.882812 241.121094 275.484375 C 237.644531 276.390625 235.839844 280.105469 234.1875 283.300781 C 231.347656 288.804688 227.691406 293.882812 223.375 298.320312 C 219.484375 302.324219 214.921875 306.011719 212.867188 311.207031 C 212.609375 311.859375 212.402344 312.566406 212.292969 313.273438 Z M 212.292969 313.273438 " fill-opacity="1" fill-rule="nonzero"/><path fill="#f7b2b2" d="M 231.246094 208.675781 C 231.246094 208.675781 226.195312 201.519531 221.300781 202.34375 C 218.902344 202.746094 223.582031 206.644531 223.582031 206.644531 C 223.582031 206.644531 209.976562 200.703125 210.546875 206.75 C 211.113281 212.796875 229.109375 217.660156 229.109375 217.660156 L 235.464844 213.632812 Z M 231.246094 208.675781 " fill-opacity="1" fill-rule="nonzero"/><path fill="#46c17e" d="M 272.535156 177.171875 L 272.425781 182.828125 L 271.894531 208.632812 C 271.894531 208.632812 265.15625 230 258.972656 231.964844 C 251.542969 234.335938 226.3125 217.140625 225.722656 216.648438 C 226.101562 216.867188 228.136719 215.363281 228.832031 214.546875 C 230.292969 212.855469 232.03125 209.175781 231.246094 208.675781 L 252.191406 216.863281 C 253.878906 217.5 255.730469 216.414062 256.003906 214.628906 L 259.667969 191.394531 C 260.972656 182.039062 264.847656 176.648438 272.535156 177.171875 Z M 272.535156 177.171875 " fill-opacity="1" fill-rule="nonzero"/><path fill="#3caf6d" d="M 272.425781 182.828125 L 271.894531 208.632812 C 271.894531 208.632812 265.15625 230 258.972656 231.964844 C 251.542969 234.335938 226.3125 217.140625 225.722656 216.648438 C 226.101562 216.867188 228.136719 215.363281 228.832031 214.546875 C 232.59375 215.769531 239.945312 219.308594 243.425781 221.25 C 244.65625 221.941406 245.910156 222.636719 247.304688 222.859375 C 248.074219 222.984375 248.871094 222.949219 249.613281 223.207031 C 250.945312 223.652344 251.855469 224.867188 252.996094 225.679688 C 254.148438 226.503906 256.039062 226.75 256.742188 225.53125 C 257.296875 224.601562 256.792969 223.40625 256.898438 222.324219 C 257.179688 219.765625 260.558594 218.878906 261.878906 216.679688 C 262.894531 215 262.527344 212.867188 262.785156 210.910156 C 263.457031 205.742188 268.429688 202.011719 269.507812 196.90625 C 269.832031 195.378906 269.792969 193.800781 269.898438 192.234375 C 270.027344 190.398438 270.90625 186.414062 272.425781 182.828125 Z M 272.425781 182.828125 " fill-opacity="1" fill-rule="nonzero"/><path fill="#54d391" d="M 272.007812 177.1875 C 286.507812 175.824219 298.660156 182.496094 308.988281 195.386719 C 310.445312 197.210938 311.363281 199.417969 311.6875 201.730469 C 313.847656 217.050781 313.621094 229.65625 310.054688 238.453125 C 309.277344 240.371094 307.644531 241.808594 305.648438 242.351562 L 305.558594 242.378906 C 303.019531 243.070312 301.109375 245.132812 300.609375 247.703125 L 297.835938 262.046875 C 293.808594 270.988281 255.929688 249.441406 259.960938 240.496094 L 262.523438 219.050781 C 262.609375 218.347656 262.550781 217.628906 262.371094 216.9375 C 259.042969 204.042969 259.855469 192.339844 265.125 181.921875 C 266.464844 179.269531 269.054688 177.464844 272.007812 177.1875 Z M 272.007812 177.1875 " fill-opacity="1" fill-rule="nonzero"/><path fill="#dde9fe" d="M 280.507812 254.679688 L 280.332031 256.980469 C 280.273438 257.691406 279.753906 258.375 278.777344 258.851562 L 254.972656 270.480469 C 253 271.4375 249.9375 271.214844 248.125 269.984375 L 216.496094 248.507812 C 215.582031 247.886719 215.15625 247.132812 215.207031 246.402344 L 215.378906 244.242188 C 215.367188 243.476562 215.898438 242.746094 216.933594 242.234375 L 240.75 230.609375 C 242.714844 229.640625 245.777344 229.863281 247.585938 231.097656 L 279.226562 252.582031 C 280.179688 253.234375 280.597656 254.027344 280.488281 254.78125 C 280.496094 254.75 280.507812 254.710938 280.507812 254.679688 Z M 280.507812 254.679688 " fill-opacity="1" fill-rule="nonzero"/><path fill="#9db6ce" d="M 280.503906 254.675781 L 280.332031 256.980469 C 280.277344 257.695312 279.753906 258.375 278.78125 258.851562 L 254.96875 270.480469 C 253.003906 271.4375 249.941406 271.21875 248.128906 269.984375 L 216.496094 248.507812 C 215.578125 247.886719 215.15625 247.128906 215.210938 246.40625 L 215.386719 244.105469 C 215.332031 244.832031 215.757812 245.585938 216.667969 246.203125 L 248.300781 267.679688 C 250.113281 268.914062 253.175781 269.136719 255.140625 268.175781 L 278.953125 256.546875 C 279.933594 256.066406 280.449219 255.390625 280.503906 254.675781 Z M 280.503906 254.675781 " fill-opacity="1" fill-rule="nonzero"/><path fill="#dde9fe" d="M 279.222656 252.578125 C 281.035156 253.808594 280.917969 255.585938 278.953125 256.546875 L 255.140625 268.175781 C 253.175781 269.136719 250.113281 268.914062 248.300781 267.679688 L 216.667969 246.203125 C 214.851562 244.96875 214.96875 243.195312 216.933594 242.234375 L 240.746094 230.601562 C 242.710938 229.644531 245.773438 229.867188 247.589844 231.101562 Z M 279.222656 252.578125 " fill-opacity="1" fill-rule="nonzero"/><path fill="#dde9fe" d="M 253.050781 266.886719 L 251.003906 268.464844 C 250.546875 268.820312 249.714844 268.679688 248.675781 267.976562 L 217.046875 246.503906 C 215.226562 245.269531 213.476562 242.765625 213.121094 240.902344 L 208.886719 218.367188 C 208.726562 217.542969 208.878906 216.984375 209.253906 216.730469 L 211.269531 215.179688 C 211.726562 214.824219 212.5625 214.957031 213.589844 215.671875 L 245.226562 237.144531 C 247.039062 238.375 248.796875 240.882812 249.144531 242.734375 L 253.386719 265.269531 C 253.527344 266.074219 253.394531 266.621094 253.050781 266.886719 Z M 253.050781 266.886719 " fill-opacity="1" fill-rule="nonzero"/><path fill="#c2d7ef" d="M 253.046875 266.890625 L 251 268.464844 C 251.347656 268.199219 251.480469 267.648438 251.332031 266.847656 L 247.09375 244.3125 C 246.742188 242.457031 244.988281 239.949219 243.171875 238.71875 L 211.542969 217.242188 C 210.511719 216.539062 209.675781 216.398438 209.21875 216.753906 L 211.269531 215.179688 C 211.726562 214.824219 212.558594 214.960938 213.59375 215.664062 L 245.222656 237.140625 C 247.039062 238.375 248.792969 240.878906 249.140625 242.734375 L 253.382812 265.273438 C 253.53125 266.074219 253.398438 266.625 253.046875 266.890625 Z M 253.046875 266.890625 " fill-opacity="1" fill-rule="nonzero"/><path fill="#285294" d="M 243.171875 238.71875 C 244.988281 239.949219 246.742188 242.453125 247.09375 244.3125 L 251.332031 266.847656 C 251.679688 268.707031 250.492188 269.210938 248.675781 267.980469 L 217.046875 246.503906 C 215.230469 245.269531 213.472656 242.765625 213.125 240.90625 L 208.886719 218.371094 C 208.535156 216.511719 209.726562 216.007812 211.542969 217.242188 Z M 243.171875 238.71875 " fill-opacity="1" fill-rule="nonzero"/><path fill="#b0c4ff" d="M 228.902344 246.015625 C 230.414062 247.042969 231.75 246.40625 231.886719 244.589844 C 232.023438 242.777344 230.910156 240.472656 229.398438 239.449219 C 227.886719 238.421875 226.550781 239.0625 226.414062 240.875 C 226.277344 242.6875 227.390625 244.988281 228.902344 246.015625 Z M 228.902344 246.015625 " fill-opacity="1" fill-rule="nonzero"/><path fill="#f7b2b2" d="M 274.21875 242.875 C 274.21875 242.875 261.949219 241.273438 264.292969 244.1875 C 265.363281 245.515625 268.003906 245.21875 268.003906 245.21875 C 268.003906 245.21875 260.167969 248.925781 260.96875 252.773438 C 261.949219 257.476562 278.210938 251.804688 278.210938 251.804688 C 280.011719 248.886719 279.515625 245.976562 277.398438 242.558594 Z M 274.21875 242.875 " fill-opacity="1" fill-rule="nonzero"/><path fill="#46c17e" d="M 274.214844 242.882812 L 299.011719 237.960938 C 300.5625 237.703125 301.625 236.265625 301.429688 234.710938 L 298.132812 208.691406 C 297.886719 206.671875 297.820312 204.625 298.117188 202.605469 C 298.753906 198.179688 300.484375 195.253906 303.589844 194.257812 C 304.664062 193.90625 305.816406 193.90625 306.847656 194.242188 C 307.675781 194.488281 308.425781 194.941406 309.007812 195.589844 C 311.117188 197.882812 312.269531 201.789062 312.695312 206.941406 C 312.695312 206.941406 316.355469 240.304688 312.902344 247.335938 C 309.371094 254.507812 278.210938 251.804688 278.210938 251.804688 C 278.507812 250.042969 278.277344 248.621094 277.550781 247.46875 Z M 274.214844 242.882812 " fill-opacity="1" fill-rule="nonzero"/><path fill="#3caf6d" d="M 312.902344 247.335938 C 309.371094 254.507812 278.210938 251.804688 278.210938 251.804688 C 278.507812 250.042969 278.277344 248.621094 277.550781 247.46875 C 279.390625 247.246094 284.148438 246.234375 285.988281 246.183594 C 291.988281 246.015625 298.132812 246.261719 303.835938 244.355469 C 304.871094 244.007812 305.929688 243.554688 306.640625 242.714844 C 308.128906 240.941406 307.484375 238.3125 307.378906 236.007812 C 307.132812 230.441406 310.546875 224.976562 309.371094 219.515625 C 308.839844 217.003906 307.378906 214.800781 306.34375 212.433594 C 304.144531 207.359375 303.964844 199.628906 306.847656 194.242188 C 307.675781 194.488281 308.425781 194.941406 309.007812 195.589844 C 311.117188 197.882812 312.269531 201.789062 312.695312 206.941406 C 312.695312 206.941406 316.355469 240.304688 312.902344 247.335938 Z M 312.902344 247.335938 " fill-opacity="1" fill-rule="nonzero"/><path fill="#f7b2b2" d="M 292.058594 173.214844 L 294.289062 182.164062 C 290.109375 186.824219 284.820312 188.78125 279.015625 187.832031 C 278.847656 187.804688 278.683594 187.769531 278.523438 187.722656 C 274.226562 186.53125 273.957031 182.871094 276.371094 177.570312 L 283.492188 169.796875 L 291.734375 170.917969 Z M 292.058594 173.214844 " fill-opacity="1" fill-rule="nonzero"/><path fill="#353437" d="M 279.625 186.6875 L 275.757812 189.945312 L 277.148438 192.738281 C 277.453125 193.351562 278.1875 193.613281 278.808594 193.324219 L 282.128906 191.785156 Z M 279.625 186.6875 " fill-opacity="1" fill-rule="nonzero"/><path fill="#353437" d="M 277.148438 192.738281 C 277.148438 192.738281 270.214844 210.746094 269.78125 224.621094 C 269.453125 235.058594 272.667969 233.300781 274.28125 231.785156 C 274.859375 231.242188 275.140625 230.457031 275.089844 229.664062 C 274.371094 218.515625 277.007812 203.53125 278.808594 193.324219 L 277.894531 191.320312 Z M 277.148438 192.738281 " fill-opacity="1" fill-rule="nonzero"/><path fill="#f1f3f2" d="M 275.660156 177.132812 C 273.929688 182.1875 275.652344 185.972656 279.625 186.6875 L 276.476562 189.566406 C 275.65625 190.316406 274.34375 190.035156 273.898438 189.015625 C 272.636719 186.136719 271.589844 183.6875 271.585938 180.71875 C 271.582031 180.300781 271.789062 179.90625 272.128906 179.664062 Z M 275.660156 177.132812 " fill-opacity="1" fill-rule="nonzero"/><path fill="#f1f3f2" d="M 296.5 185.824219 C 294.957031 189.6875 289.117188 190.945312 282.273438 191.78125 C 281.695312 191.84375 281.148438 191.492188 280.964844 190.929688 L 279.621094 186.683594 C 286.972656 187.339844 292.53125 185.71875 294.070312 181.296875 L 296.019531 182.9375 C 296.816406 183.648438 296.882812 184.867188 296.5 185.824219 Z M 296.5 185.824219 " fill-opacity="1" fill-rule="nonzero"/><path fill="#f7b2b2" d="M 292.335938 175.214844 C 292.335938 175.214844 274.203125 184.203125 269.761719 180.410156 C 265.226562 176.53125 271.351562 155.746094 271.351562 155.746094 L 284.933594 154.390625 L 296.210938 166.96875 C 296.210938 166.96875 294.015625 171.605469 293.757812 172.011719 C 293.5 172.417969 292.335938 175.214844 292.335938 175.214844 Z M 292.335938 175.214844 " fill-opacity="1" fill-rule="nonzero"/><path fill="#eaa7a7" d="M 293.074219 173.570312 C 292.707031 174.421875 292.335938 175.296875 292.335938 175.296875 C 292.335938 175.296875 274.207031 184.289062 269.761719 180.488281 C 265.226562 176.617188 271.355469 155.828125 271.355469 155.828125 L 272.515625 155.714844 C 271.109375 161.078125 267.851562 175.164062 271.5 178.285156 C 275.304688 181.542969 289.207031 175.378906 293.074219 173.570312 Z M 293.074219 173.570312 " fill-opacity="1" fill-rule="nonzero"/><path fill="#353437" d="M 293.214844 175.636719 C 299.035156 167.449219 301.515625 160.234375 298.507812 154.617188 C 296.789062 147.855469 291.339844 144.941406 282.628906 145.390625 C 278.246094 145.550781 274.285156 147.503906 270.582031 150.566406 C 268.765625 152.066406 269.203125 155.113281 271.351562 155.828125 L 278.285156 158.132812 C 279.644531 158.585938 280.597656 159.878906 280.707031 161.414062 L 280.714844 161.539062 C 280.773438 162.308594 281.042969 163.035156 281.492188 163.625 C 282.570312 165.046875 283.238281 166.75 283.46875 168.75 C 283.546875 169.417969 283.980469 169.96875 284.574219 170.171875 C 285.078125 170.34375 285.628906 170.234375 286.0625 169.894531 C 287.277344 168.941406 288.628906 168.550781 290.128906 168.761719 C 290.621094 168.828125 291.101562 168.984375 291.507812 169.28125 C 292.628906 170.089844 292.703125 171.414062 291.828125 173.207031 C 291.667969 173.542969 291.679688 173.941406 291.839844 174.273438 L 292.472656 175.582031 C 292.621094 175.886719 293.019531 175.914062 293.214844 175.636719 Z M 293.214844 175.636719 " fill-opacity="1" fill-rule="nonzero"/><path fill="#29282b" d="M 293.21875 175.636719 C 293.019531 175.917969 292.625 175.886719 292.46875 175.585938 L 292.222656 175.066406 C 296.519531 168.148438 298.0625 162.039062 295.4375 157.136719 C 293.726562 150.375 288.277344 147.457031 279.5625 147.914062 C 276.136719 148.039062 272.960938 149.253906 269.972656 151.257812 C 270.128906 151.007812 270.335938 150.769531 270.585938 150.5625 C 274.289062 147.507812 278.242188 145.554688 282.621094 145.390625 C 291.339844 144.941406 296.789062 147.851562 298.511719 154.613281 C 301.519531 160.234375 299.039062 167.453125 293.21875 175.636719 Z M 293.21875 175.636719 " fill-opacity="1" fill-rule="nonzero"/><g transform="matrix(1, 0, 0, 1, 102, 8)"><g clip-path="url(#bb627d4a02)"><g fill="#000000" fill-opacity="1"><g transform="translate(1.040381, 46.454198)"><g><path d="M 16.984375 -16.390625 L 10.71875 -16.390625 C 10.25 -16.390625 9.941406 -16.25 9.796875 -15.96875 C 9.648438 -15.6875 9.578125 -15.070312 9.578125 -14.125 L 9.578125 -10.984375 C 9.578125 -8.273438 9.644531 -6.332031 9.78125 -5.15625 C 9.925781 -3.976562 10.160156 -3.289062 10.484375 -3.09375 C 10.710938 -2.945312 11.097656 -2.785156 11.640625 -2.609375 C 12.597656 -2.296875 13.078125 -1.914062 13.078125 -1.46875 C 13.078125 -0.894531 12.644531 -0.472656 11.78125 -0.203125 C 10.925781 0.0546875 9.523438 0.1875 7.578125 0.1875 C 5.609375 0.1875 4.203125 0.0625 3.359375 -0.1875 C 2.515625 -0.445312 2.09375 -0.875 2.09375 -1.46875 C 2.09375 -1.914062 2.535156 -2.285156 3.421875 -2.578125 C 4.316406 -2.867188 4.828125 -3.101562 4.953125 -3.28125 C 5.203125 -3.582031 5.375 -4.707031 5.46875 -6.65625 C 5.570312 -8.613281 5.625 -12.191406 5.625 -17.390625 C 5.625 -22.523438 5.570312 -26.0625 5.46875 -28 C 5.375 -29.9375 5.203125 -31.0625 4.953125 -31.375 C 4.828125 -31.539062 4.316406 -31.769531 3.421875 -32.0625 C 2.535156 -32.363281 2.09375 -32.726562 2.09375 -33.15625 C 2.09375 -33.695312 2.390625 -34.085938 2.984375 -34.328125 C 3.578125 -34.578125 4.582031 -34.703125 6 -34.703125 L 22.125 -34.703125 C 22.894531 -34.703125 23.679688 -34.773438 24.484375 -34.921875 C 25.296875 -35.078125 25.71875 -35.15625 25.75 -35.15625 C 26.382812 -35.15625 26.882812 -34.6875 27.25 -33.75 C 27.613281 -32.8125 27.796875 -31.523438 27.796875 -29.890625 C 27.796875 -29.265625 27.6875 -28.78125 27.46875 -28.4375 C 27.25 -28.101562 26.945312 -27.9375 26.5625 -27.9375 C 26.15625 -27.9375 25.707031 -28.378906 25.21875 -29.265625 C 25.0625 -29.523438 24.9375 -29.734375 24.84375 -29.890625 C 24.375 -30.648438 23.828125 -31.171875 23.203125 -31.453125 C 22.578125 -31.742188 21.632812 -31.890625 20.375 -31.890625 L 14.265625 -31.890625 C 12.796875 -31.890625 11.757812 -31.820312 11.15625 -31.6875 C 10.5625 -31.550781 10.203125 -31.316406 10.078125 -30.984375 C 9.910156 -30.523438 9.789062 -29.644531 9.71875 -28.34375 C 9.65625 -27.050781 9.625 -24.660156 9.625 -21.171875 L 9.625 -20.796875 C 9.625 -19.972656 9.6875 -19.476562 9.8125 -19.3125 C 9.9375 -19.15625 10.238281 -19.078125 10.71875 -19.078125 L 16.984375 -19.078125 C 18.066406 -19.078125 18.828125 -19.242188 19.265625 -19.578125 C 19.703125 -19.910156 19.972656 -20.535156 20.078125 -21.453125 C 20.097656 -21.578125 20.117188 -21.753906 20.140625 -21.984375 C 20.347656 -23.441406 20.789062 -24.171875 21.46875 -24.171875 C 22.0625 -24.171875 22.46875 -23.769531 22.6875 -22.96875 C 22.914062 -22.175781 23.03125 -20.421875 23.03125 -17.703125 C 23.03125 -14.984375 22.914062 -13.222656 22.6875 -12.421875 C 22.46875 -11.617188 22.0625 -11.21875 21.46875 -11.21875 C 20.789062 -11.238281 20.347656 -11.976562 20.140625 -13.4375 C 20.117188 -13.664062 20.097656 -13.84375 20.078125 -13.96875 C 19.972656 -14.882812 19.695312 -15.515625 19.25 -15.859375 C 18.8125 -16.210938 18.054688 -16.390625 16.984375 -16.390625 Z M 16.984375 -16.390625 "/></g></g></g><g fill="#000000" fill-opacity="1"><g transform="translate(30.52613, 46.454198)"><g><path d="M 3.328125 -32.15625 C 3.328125 -32.90625 3.570312 -33.53125 4.0625 -34.03125 C 4.5625 -34.53125 5.175781 -34.78125 5.90625 -34.78125 C 6.632812 -34.78125 7.222656 -34.5625 7.671875 -34.125 C 8.128906 -33.695312 8.359375 -33.144531 8.359375 -32.46875 C 8.359375 -31.769531 8.109375 -31.171875 7.609375 -30.671875 C 7.117188 -30.179688 6.519531 -29.9375 5.8125 -29.9375 C 5.113281 -29.9375 4.523438 -30.144531 4.046875 -30.5625 C 3.566406 -30.988281 3.328125 -31.519531 3.328125 -32.15625 Z M 4.234375 -9.046875 C 4.234375 -12.773438 4.1875 -15.503906 4.09375 -17.234375 C 4 -18.960938 3.84375 -19.988281 3.625 -20.3125 C 3.488281 -20.53125 3.007812 -20.695312 2.1875 -20.8125 C 1.363281 -20.925781 0.953125 -21.253906 0.953125 -21.796875 C 0.953125 -22.109375 1.078125 -22.382812 1.328125 -22.625 C 1.585938 -22.863281 2.035156 -23.113281 2.671875 -23.375 C 3.441406 -23.6875 4.210938 -23.9375 4.984375 -24.125 C 5.753906 -24.320312 6.363281 -24.421875 6.8125 -24.421875 C 7.226562 -24.421875 7.519531 -24.300781 7.6875 -24.0625 C 7.863281 -23.820312 7.953125 -23.367188 7.953125 -22.703125 C 7.953125 -22.546875 7.941406 -22.097656 7.921875 -21.359375 C 7.816406 -17.066406 7.765625 -12.71875 7.765625 -8.3125 C 7.765625 -6.207031 7.8125 -4.789062 7.90625 -4.0625 C 8 -3.332031 8.148438 -2.867188 8.359375 -2.671875 C 8.535156 -2.515625 8.945312 -2.332031 9.59375 -2.125 C 10.25 -1.925781 10.578125 -1.628906 10.578125 -1.234375 C 10.578125 -0.753906 10.210938 -0.394531 9.484375 -0.15625 C 8.753906 0.0703125 7.609375 0.1875 6.046875 0.1875 C 4.398438 0.1875 3.207031 0.078125 2.46875 -0.140625 C 1.738281 -0.367188 1.375 -0.734375 1.375 -1.234375 C 1.375 -1.628906 1.695312 -1.925781 2.34375 -2.125 C 3 -2.332031 3.410156 -2.515625 3.578125 -2.671875 C 3.804688 -2.890625 3.972656 -3.441406 4.078125 -4.328125 C 4.179688 -5.222656 4.234375 -6.796875 4.234375 -9.046875 Z M 4.234375 -9.046875 "/></g></g></g><g fill="#000000" fill-opacity="1"><g transform="translate(42.376181, 46.454198)"><g><path d="M 7.625 -18.46875 C 7.625 -12.394531 7.660156 -8.363281 7.734375 -6.375 C 7.816406 -4.382812 7.953125 -3.242188 8.140625 -2.953125 C 8.316406 -2.660156 8.765625 -2.398438 9.484375 -2.171875 C 10.210938 -1.941406 10.578125 -1.628906 10.578125 -1.234375 C 10.578125 -0.734375 10.207031 -0.367188 9.46875 -0.140625 C 8.726562 0.078125 7.539062 0.1875 5.90625 0.1875 C 4.25 0.1875 3.046875 0.078125 2.296875 -0.140625 C 1.554688 -0.367188 1.1875 -0.734375 1.1875 -1.234375 C 1.1875 -1.628906 1.546875 -1.941406 2.265625 -2.171875 C 2.984375 -2.398438 3.4375 -2.660156 3.625 -2.953125 C 3.78125 -3.234375 3.890625 -4.050781 3.953125 -5.40625 C 4.015625 -6.757812 4.046875 -9.332031 4.046875 -13.125 L 4.046875 -17.125 C 4.046875 -23.289062 3.984375 -27.160156 3.859375 -28.734375 C 3.734375 -30.304688 3.507812 -31.21875 3.1875 -31.46875 C 3.09375 -31.53125 2.65625 -31.613281 1.875 -31.71875 C 1.101562 -31.832031 0.71875 -32.160156 0.71875 -32.703125 C 0.71875 -32.992188 0.859375 -33.257812 1.140625 -33.5 C 1.421875 -33.75 1.863281 -34.007812 2.46875 -34.28125 C 3.28125 -34.59375 4.085938 -34.84375 4.890625 -35.03125 C 5.691406 -35.226562 6.269531 -35.328125 6.625 -35.328125 C 7.09375 -35.328125 7.414062 -35.207031 7.59375 -34.96875 C 7.769531 -34.726562 7.859375 -34.273438 7.859375 -33.609375 C 7.859375 -33.453125 7.84375 -32.96875 7.8125 -32.15625 C 7.6875 -27.632812 7.625 -23.070312 7.625 -18.46875 Z M 7.625 -18.46875 "/></g></g></g><g fill="#000000" fill-opacity="1"><g transform="translate(53.993878, 46.454198)"><g><path d="M 6.953125 -14.890625 L 18.703125 -14.890625 C 19.054688 -14.890625 19.296875 -14.957031 19.421875 -15.09375 C 19.546875 -15.226562 19.609375 -15.476562 19.609375 -15.84375 C 19.609375 -17.65625 18.992188 -19.160156 17.765625 -20.359375 C 16.546875 -21.566406 15 -22.171875 13.125 -22.171875 C 12.132812 -22.171875 11.191406 -21.953125 10.296875 -21.515625 C 9.410156 -21.085938 8.628906 -20.46875 7.953125 -19.65625 C 7.410156 -19.007812 6.972656 -18.304688 6.640625 -17.546875 C 6.304688 -16.785156 6.140625 -16.125 6.140625 -15.5625 C 6.140625 -15.320312 6.195312 -15.148438 6.3125 -15.046875 C 6.425781 -14.941406 6.640625 -14.890625 6.953125 -14.890625 Z M 21.515625 -12.890625 L 6.859375 -12.890625 C 6.546875 -12.890625 6.332031 -12.828125 6.21875 -12.703125 C 6.101562 -12.585938 6.046875 -12.347656 6.046875 -11.984375 C 6.046875 -9.085938 6.8125 -6.710938 8.34375 -4.859375 C 9.875 -3.015625 11.832031 -2.09375 14.21875 -2.09375 C 15.144531 -2.09375 16.046875 -2.242188 16.921875 -2.546875 C 17.804688 -2.859375 18.601562 -3.3125 19.3125 -3.90625 C 19.6875 -4.195312 20.203125 -4.710938 20.859375 -5.453125 C 21.515625 -6.203125 22.066406 -6.578125 22.515625 -6.578125 C 22.773438 -6.578125 22.988281 -6.492188 23.15625 -6.328125 C 23.332031 -6.171875 23.421875 -5.96875 23.421875 -5.71875 C 23.421875 -5.375 23.316406 -4.992188 23.109375 -4.578125 C 22.898438 -4.171875 22.601562 -3.753906 22.21875 -3.328125 C 21.050781 -2.035156 19.703125 -1.050781 18.171875 -0.375 C 16.648438 0.289062 15.015625 0.625 13.265625 0.625 C 9.953125 0.625 7.207031 -0.523438 5.03125 -2.828125 C 2.851562 -5.128906 1.765625 -8.03125 1.765625 -11.53125 C 1.765625 -15.25 2.898438 -18.328125 5.171875 -20.765625 C 7.453125 -23.203125 10.3125 -24.421875 13.75 -24.421875 C 16.726562 -24.421875 19.09375 -23.582031 20.84375 -21.90625 C 22.59375 -20.238281 23.46875 -17.976562 23.46875 -15.125 C 23.46875 -14.195312 23.367188 -13.59375 23.171875 -13.3125 C 22.972656 -13.03125 22.421875 -12.890625 21.515625 -12.890625 Z M 21.515625 -12.890625 "/></g></g></g><g fill="#000000" fill-opacity="1"><g transform="translate(79.204288, 46.454198)"><g><path d="M 16.4375 -17.03125 C 14.257812 -17.03125 12.617188 -16.988281 11.515625 -16.90625 C 10.421875 -16.820312 9.703125 -16.675781 9.359375 -16.46875 C 9.210938 -16.363281 9.109375 -16.15625 9.046875 -15.84375 C 8.984375 -15.539062 8.953125 -14.96875 8.953125 -14.125 L 8.953125 -11.671875 C 8.953125 -8.046875 9.007812 -5.757812 9.125 -4.8125 C 9.25 -3.863281 9.476562 -3.289062 9.8125 -3.09375 C 10.050781 -2.945312 10.4375 -2.785156 10.96875 -2.609375 C 11.945312 -2.296875 12.4375 -1.914062 12.4375 -1.46875 C 12.4375 -0.894531 12.003906 -0.472656 11.140625 -0.203125 C 10.285156 0.0546875 8.875 0.1875 6.90625 0.1875 C 4.945312 0.1875 3.539062 0.0625 2.6875 -0.1875 C 1.84375 -0.445312 1.421875 -0.875 1.421875 -1.46875 C 1.421875 -1.914062 1.863281 -2.285156 2.75 -2.578125 C 3.644531 -2.867188 4.15625 -3.101562 4.28125 -3.28125 C 4.519531 -3.582031 4.691406 -4.707031 4.796875 -6.65625 C 4.898438 -8.613281 4.953125 -12.191406 4.953125 -17.390625 C 4.953125 -22.523438 4.898438 -26.0625 4.796875 -28 C 4.691406 -29.9375 4.519531 -31.0625 4.28125 -31.375 C 4.15625 -31.539062 3.644531 -31.769531 2.75 -32.0625 C 1.863281 -32.363281 1.421875 -32.726562 1.421875 -33.15625 C 1.421875 -33.757812 1.851562 -34.195312 2.71875 -34.46875 C 3.582031 -34.738281 4.976562 -34.875 6.90625 -34.875 C 8.820312 -34.875 10.222656 -34.738281 11.109375 -34.46875 C 11.992188 -34.195312 12.4375 -33.757812 12.4375 -33.15625 C 12.4375 -32.738281 11.960938 -32.375 11.015625 -32.0625 C 10.453125 -31.894531 10.050781 -31.742188 9.8125 -31.609375 C 9.476562 -31.421875 9.25 -30.800781 9.125 -29.75 C 9.007812 -28.707031 8.953125 -26.4375 8.953125 -22.9375 L 8.953125 -22.171875 C 8.953125 -21.503906 8.984375 -21.035156 9.046875 -20.765625 C 9.109375 -20.503906 9.210938 -20.320312 9.359375 -20.21875 C 9.722656 -20.03125 10.476562 -19.894531 11.625 -19.8125 C 12.78125 -19.738281 14.960938 -19.703125 18.171875 -19.703125 C 20.960938 -19.703125 22.96875 -19.738281 24.1875 -19.8125 C 25.414062 -19.894531 26.203125 -20.03125 26.546875 -20.21875 C 26.710938 -20.3125 26.828125 -20.484375 26.890625 -20.734375 C 26.953125 -20.992188 26.984375 -21.472656 26.984375 -22.171875 L 26.984375 -23.65625 C 26.984375 -26.84375 26.921875 -28.914062 26.796875 -29.875 C 26.671875 -30.84375 26.445312 -31.421875 26.125 -31.609375 C 25.882812 -31.742188 25.488281 -31.894531 24.9375 -32.0625 C 23.988281 -32.375 23.515625 -32.738281 23.515625 -33.15625 C 23.515625 -33.757812 23.941406 -34.195312 24.796875 -34.46875 C 25.660156 -34.738281 27.054688 -34.875 28.984375 -34.875 C 30.898438 -34.875 32.289062 -34.738281 33.15625 -34.46875 C 34.03125 -34.195312 34.46875 -33.757812 34.46875 -33.15625 C 34.46875 -32.726562 34.03125 -32.363281 33.15625 -32.0625 C 32.28125 -31.769531 31.78125 -31.539062 31.65625 -31.375 C 31.382812 -31.050781 31.195312 -29.851562 31.09375 -27.78125 C 30.988281 -25.71875 30.9375 -22.253906 30.9375 -17.390625 C 30.9375 -12.546875 30.988281 -9.0625 31.09375 -6.9375 C 31.195312 -4.820312 31.367188 -3.601562 31.609375 -3.28125 C 31.742188 -3.101562 32.253906 -2.867188 33.140625 -2.578125 C 34.023438 -2.285156 34.46875 -1.914062 34.46875 -1.46875 C 34.46875 -0.875 34.039062 -0.445312 33.1875 -0.1875 C 32.332031 0.0625 30.929688 0.1875 28.984375 0.1875 C 27.023438 0.1875 25.625 0.0625 24.78125 -0.1875 C 23.9375 -0.445312 23.515625 -0.875 23.515625 -1.46875 C 23.515625 -1.914062 23.992188 -2.296875 24.953125 -2.609375 C 25.492188 -2.785156 25.882812 -2.945312 26.125 -3.09375 C 26.425781 -3.289062 26.632812 -3.878906 26.75 -4.859375 C 26.875 -5.835938 26.9375 -7.671875 26.9375 -10.359375 L 26.9375 -14.9375 C 26.9375 -15.601562 26.875 -16.03125 26.75 -16.21875 C 26.632812 -16.40625 26.425781 -16.550781 26.125 -16.65625 C 25.78125 -16.78125 24.78125 -16.875 23.125 -16.9375 C 21.46875 -17 19.238281 -17.03125 16.4375 -17.03125 Z M 16.4375 -17.03125 "/></g></g></g><g fill="#000000" fill-opacity="1"><g transform="translate(115.126208, 46.454198)"><g><path d="M 19.890625 -1.09375 L 19.890625 -3.09375 C 19.890625 -3.351562 19.863281 -3.53125 19.8125 -3.625 C 19.769531 -3.71875 19.703125 -3.765625 19.609375 -3.765625 C 19.390625 -3.765625 19.070312 -3.476562 18.65625 -2.90625 C 18.320312 -2.425781 18.035156 -2.0625 17.796875 -1.8125 C 17.066406 -0.988281 16.21875 -0.378906 15.25 0.015625 C 14.28125 0.421875 13.175781 0.625 11.9375 0.625 C 9.0625 0.625 6.957031 -0.28125 5.625 -2.09375 C 4.289062 -3.90625 3.625 -6.78125 3.625 -10.71875 L 3.625 -14.703125 C 3.625 -16.972656 3.566406 -18.476562 3.453125 -19.21875 C 3.347656 -19.957031 3.164062 -20.421875 2.90625 -20.609375 C 2.8125 -20.671875 2.375 -20.753906 1.59375 -20.859375 C 0.820312 -20.960938 0.429688 -21.289062 0.421875 -21.84375 C 0.421875 -22.132812 0.5625 -22.40625 0.84375 -22.65625 C 1.132812 -22.90625 1.582031 -23.160156 2.1875 -23.421875 C 2.988281 -23.734375 3.789062 -23.984375 4.59375 -24.171875 C 5.40625 -24.367188 5.984375 -24.46875 6.328125 -24.46875 C 6.804688 -24.46875 7.132812 -24.347656 7.3125 -24.109375 C 7.488281 -23.867188 7.578125 -23.414062 7.578125 -22.75 C 7.578125 -21.945312 7.519531 -20.578125 7.40625 -18.640625 C 7.289062 -16.703125 7.234375 -15.164062 7.234375 -14.03125 L 7.234375 -12.71875 C 7.234375 -10.46875 7.28125 -8.832031 7.375 -7.8125 C 7.476562 -6.789062 7.65625 -5.945312 7.90625 -5.28125 C 8.238281 -4.332031 8.828125 -3.585938 9.671875 -3.046875 C 10.523438 -2.503906 11.523438 -2.234375 12.671875 -2.234375 C 13.828125 -2.234375 14.9375 -2.515625 16 -3.078125 C 17.070312 -3.640625 18.003906 -4.441406 18.796875 -5.484375 C 19.179688 -5.984375 19.453125 -6.578125 19.609375 -7.265625 C 19.765625 -7.960938 19.84375 -9.066406 19.84375 -10.578125 L 19.84375 -14.703125 C 19.84375 -16.953125 19.785156 -18.445312 19.671875 -19.1875 C 19.566406 -19.9375 19.382812 -20.410156 19.125 -20.609375 C 19.03125 -20.671875 18.601562 -20.753906 17.84375 -20.859375 C 17.082031 -20.972656 16.703125 -21.300781 16.703125 -21.84375 C 16.703125 -22.132812 16.835938 -22.40625 17.109375 -22.65625 C 17.378906 -22.914062 17.816406 -23.171875 18.421875 -23.421875 C 19.210938 -23.734375 20.019531 -23.984375 20.84375 -24.171875 C 21.664062 -24.367188 22.253906 -24.46875 22.609375 -24.46875 C 23.054688 -24.46875 23.363281 -24.351562 23.53125 -24.125 C 23.707031 -23.894531 23.796875 -23.4375 23.796875 -22.75 C 23.796875 -21.757812 23.738281 -20.234375 23.625 -18.171875 C 23.519531 -16.109375 23.46875 -14.546875 23.46875 -13.484375 C 23.46875 -9.992188 23.507812 -7.53125 23.59375 -6.09375 C 23.6875 -4.664062 23.832031 -3.796875 24.03125 -3.484375 C 24.164062 -3.265625 24.648438 -3.097656 25.484375 -2.984375 C 26.328125 -2.867188 26.75 -2.539062 26.75 -2 C 26.75 -1.457031 26.09375 -0.882812 24.78125 -0.28125 C 23.476562 0.320312 22.226562 0.625 21.03125 0.625 C 20.613281 0.625 20.316406 0.503906 20.140625 0.265625 C 19.972656 0.0234375 19.890625 -0.425781 19.890625 -1.09375 Z M 19.890625 -1.09375 "/></g></g></g><g fill="#000000" fill-opacity="1"><g transform="translate(142.636914, 46.454198)"><g><path d="M 13.890625 -22.03125 C 12.679688 -22.03125 11.550781 -21.738281 10.5 -21.15625 C 9.445312 -20.570312 8.597656 -19.769531 7.953125 -18.75 C 7.703125 -18.363281 7.523438 -17.816406 7.421875 -17.109375 C 7.328125 -16.410156 7.28125 -15.003906 7.28125 -12.890625 C 7.28125 -10.867188 7.304688 -9.191406 7.359375 -7.859375 C 7.421875 -6.535156 7.507812 -5.675781 7.625 -5.28125 C 7.882812 -4.195312 8.5625 -3.28125 9.65625 -2.53125 C 10.757812 -1.789062 12.019531 -1.421875 13.4375 -1.421875 C 15.769531 -1.421875 17.65625 -2.378906 19.09375 -4.296875 C 20.539062 -6.222656 21.265625 -8.757812 21.265625 -11.90625 C 21.265625 -14.9375 20.582031 -17.378906 19.21875 -19.234375 C 17.851562 -21.097656 16.078125 -22.03125 13.890625 -22.03125 Z M 7.234375 -21.21875 L 7.578125 -21.21875 C 8.628906 -22.34375 9.738281 -23.164062 10.90625 -23.6875 C 12.082031 -24.207031 13.410156 -24.46875 14.890625 -24.46875 C 18.035156 -24.46875 20.597656 -23.375 22.578125 -21.1875 C 24.566406 -19.007812 25.5625 -16.171875 25.5625 -12.671875 C 25.5625 -10.710938 25.160156 -8.847656 24.359375 -7.078125 C 23.566406 -5.316406 22.425781 -3.75 20.9375 -2.375 C 19.851562 -1.363281 18.617188 -0.59375 17.234375 -0.0625 C 15.847656 0.457031 14.359375 0.71875 12.765625 0.71875 C 11.472656 0.71875 10.253906 0.523438 9.109375 0.140625 C 7.960938 -0.234375 6.863281 -0.804688 5.8125 -1.578125 C 5.332031 -1.296875 4.898438 -1.085938 4.515625 -0.953125 C 4.140625 -0.828125 3.796875 -0.765625 3.484375 -0.765625 C 3.203125 -0.765625 2.953125 -0.804688 2.734375 -0.890625 C 2.523438 -0.972656 2.328125 -1.101562 2.140625 -1.28125 C 2.722656 -1.820312 3.128906 -2.703125 3.359375 -3.921875 C 3.597656 -5.148438 3.71875 -7.460938 3.71875 -10.859375 C 3.71875 -18.460938 3.660156 -23.65625 3.546875 -26.4375 C 3.441406 -29.21875 3.257812 -30.804688 3 -31.203125 C 2.84375 -31.441406 2.359375 -31.613281 1.546875 -31.71875 C 0.734375 -31.832031 0.328125 -32.160156 0.328125 -32.703125 C 0.328125 -32.992188 0.460938 -33.257812 0.734375 -33.5 C 1.015625 -33.75 1.46875 -34.007812 2.09375 -34.28125 C 2.894531 -34.59375 3.695312 -34.84375 4.5 -35.03125 C 5.3125 -35.226562 5.890625 -35.328125 6.234375 -35.328125 C 6.691406 -35.328125 7 -35.207031 7.15625 -34.96875 C 7.320312 -34.738281 7.40625 -34.285156 7.40625 -33.609375 C 7.40625 -33.460938 7.398438 -33.050781 7.390625 -32.375 C 7.285156 -28.65625 7.234375 -24.9375 7.234375 -21.21875 Z M 7.234375 -21.21875 "/></g></g></g></g></g></svg>